Patient4_TMGait_0pt7_02_right_14_EMG.mot
version=1
nRows=26
nColumns=33
inDegrees=no
endheader
time	1LAddLong	2LGlutMax	3LGlutMed	4LIliopsoas	5LSemiMemb	6LBicFemLong	7LRecFem	8LVastMed	9LVastLat	10LGasMed	11LTibAnt	12lTibPost	13LPeroneusLong	14LSol	15LExtDigLong	16LFlexDigLong	17RAddLong	18RGlutMax	19RGlutMed	20RIliopsoas	21RSemiMemb	22RBicFemLong	23RRecFem	24RVastMed	25RVastLat	26RGasMed	27RTibAnt	28RTibPost	29RPeroneusLong	30RSol	31RExtDigLong	32RFlexDigLong
15.54	-0.022736	-0.49728	0.069427	0.006714	0.032806	-0.057526	0.14221	-0.010986	0.24612	0.19836	-0.019073	0.004883	-0.15488	0.62393	-0.021362	-0.06485	0.062256	-0.62561	0.83237	-0.059204	-0.079956	-0.56702	-0.068665	-0.37735	0.05127	0.000305	0.15701	0.024109	-1.2972	0.095673	-0.002136	-0.021057
15.541	-0.019684	-0.42328	0.066528	0.029907	0.018921	-0.029297	0.21744	-0.006561	0.22186	0.072937	-0.018768	-0.016327	-0.18539	0.44235	-0.032654	-0.057678	0.054474	-0.47821	0.22156	0.032196	0.11368	-0.57037	-0.090332	0.08255	0.1207	-0.010986	0.12207	0.008087	0.13779	-0.10452	-0.002136	-0.022888
15.542	-0.018005	-0.40817	0.045929	0.018005	0.028687	-0.0383	0.25559	-0.010529	0.23682	0.035553	-0.011444	0.007782	-0.22385	0.28595	-0.032349	-0.061646	0.053101	-0.457	0.16586	0.036469	0.11551	-0.46753	-0.012207	0.9108	0.12085	-0.059052	-0.082397	-0.090637	0.81238	0.11566	-0.003662	-0.021973
15.543	-0.026703	-0.41977	0.018005	0.022736	0.026245	-0.050964	0.28366	-0.009155	0.23224	0.18662	-0.013885	0.031281	-0.24826	0.47226	-0.028076	-0.064697	0.006104	-0.47653	-0.21637	-0.097656	-0.068359	-0.3183	0.10696	1.1411	0.033569	-0.076141	-0.13473	-0.33646	-0.081177	0.31265	0.001984	-0.022888
15.544	-0.031281	-0.45105	-0.013885	0.012054	0.027008	-0.046692	0.28625	-0.011444	0.2298	0.44647	-0.013733	0.070038	-0.25146	0.52185	-0.018616	-0.030212	-0.067749	-0.46249	0.16861	-0.13412	-0.35782	-0.20493	0.14374	0.76645	0.010223	0.007324	-0.056305	0.090637	0.072327	0.44373	-0.005035	-0.013123
15.545	-0.02533	-0.36697	-0.058289	-0.008545	0.032654	-0.068207	0.21057	-0.006256	0.2385	0.19989	-0.009003	0.052643	-0.1358	0.34851	-0.003662	-0.032654	-0.092926	-0.46677	-0.47958	-0.0354	-0.034943	-0.078735	0.2034	0.44571	0.04837	0.014954	0.078278	0.33402	0.05722	0.4361	-0.004272	-0.021057
15.546	-0.026703	-0.36575	-0.068817	-0.009766	0.048981	-0.070496	0.15793	-0.002289	0.27527	-0.21606	-0.015106	-0.007019	-0.079956	0.2066	-0.00946	-0.027008	-0.08255	-0.51178	-1.2555	0.096741	0.093689	-0.055542	0.38422	-0.11078	-0.18097	0.010376	0.021057	0.1033	0.40024	0.4071	-0.005493	-0.013123
15.547	-0.018005	-0.32455	-0.067444	0.00946	0.028839	-0.080109	0.21866	-0.005035	0.29968	-0.1799	-0.011139	-0.035706	-0.082245	0.14145	-0.002441	-0.045013	-0.041809	-0.49103	-0.94055	0.12802	-0.036621	-0.09964	0.52017	-0.43198	-0.35065	0.012665	-0.037537	0.040588	0.18158	0.12619	-0.002747	-0.011749
15.548	-0.030975	-0.26382	-0.061188	0.018005	0.033264	-0.076599	0.19791	0.00412	0.2945	-0.11169	-0.012512	-0.057526	-0.089722	0.000305	-0.004272	-0.0383	-0.015411	-0.55725	-1.1455	0.049896	0.075989	-0.088196	0.69641	-0.54001	-0.41382	0.012512	-0.02594	0.006866	0.085907	-0.14008	-0.000458	-0.013885
15.549	-0.015106	-0.23285	-0.06134	0.034637	0.03479	-0.069733	0.17364	-0.00351	0.29495	-0.095215	-0.003357	-0.061188	-0.1329	-0.031586	-0.010376	-0.041656	-0.018005	-0.51178	-1.0501	-0.022278	0.085907	0.020905	0.61249	-0.56885	-0.27344	0.00824	0.04715	-0.007782	-0.30029	-0.18021	0.000763	-0.001373
15.55	-0.017853	-0.2034	-0.042725	0.066528	0.039825	-0.084991	0.23605	0.001068	0.25467	-0.073242	-0.004578	-0.048218	-0.12329	0.1564	-0.010223	-0.022736	-0.041962	-0.47989	-0.44723	-0.052795	-0.041809	0.067596	0.52643	-0.54977	0.007782	0.000305	0.090942	-0.020142	-0.77255	-0.16892	0.002136	-0.008698
15.551	-0.024109	-0.17334	-0.002747	0.074921	0.037384	-0.074921	0.30502	-0.002747	0.20706	-0.044556	-0.003357	-0.041199	-0.11185	0.23453	-0.010986	0.018463	-0.067444	-0.42343	-0.64087	-0.034027	-0.042419	-0.023651	0.56946	-0.41504	0.24872	0.006256	0.03952	-0.025482	-0.56763	-0.2449	-0.004425	-0.006561
15.552	-0.008545	-0.1088	-0.016937	0.047302	0.015869	-0.085602	0.39429	0.005493	0.159	-0.023499	-0.002441	-0.042267	-0.097656	0.19592	-0.007019	0.008087	-0.041962	-0.39276	-0.38727	-0.028992	-0.21622	-0.078125	0.52612	-0.31845	0.30823	-0.000458	0.023804	-0.030365	-0.2446	-0.31311	0	-0.000916
15.553	-0.029297	-0.089874	-0.023041	0.011444	0.040283	-0.04715	0.52277	0.002289	0.16052	0.023041	-0.007477	-0.041351	-0.11612	0.1532	0.002747	0.01709	-0.017395	-0.47699	-0.63126	0.056305	-0.20187	0.014648	0.59555	-0.007629	0.30579	-0.004272	-0.015564	-0.025787	-0.18265	-0.3598	-0.003662	-0.000153
15.554	-0.028076	-0.052032	-0.00061	0.02594	0.033417	-0.020599	0.41687	0.012207	0.13001	0.068665	-0.00351	-0.020905	-0.14801	0.059204	-0.006714	0.01709	0.023041	-0.44754	0.079041	0.009308	0.096588	-0.080566	0.74081	0.009918	0.17334	-0.00061	-0.083618	-0.028076	-0.45898	-0.37628	-0.002899	0.005646
15.555	-0.00824	-0.013733	-0.001984	0.025177	0.027313	0.008392	0.24445	0.019989	0.12405	0.068512	-0.004578	-0.014801	-0.15854	0.025177	-0.003357	0.016785	0.011597	-0.34653	0.57251	0.038605	0.092468	-0.20355	0.70923	0.051727	0.041046	-0.001831	-0.020142	-0.038147	-0.1062	-0.354	-0.003357	-0.000458
15.556	-0.02121	0.086212	-0.000763	-0.004578	0.02655	0.011597	0.17853	0.016632	0.092621	0.032959	-0.015259	-0.007477	-0.15579	0.015411	-0.003357	0.00946	0.019073	-0.20798	0.40192	-0.019531	-0.014496	-0.27435	0.62149	0.053558	0.014801	-0.001831	0.049438	-0.040741	0.2298	-0.33432	-0.00351	-0.00061
15.557	-0.011139	0.1059	0.048218	-0.023041	0.019531	0.028381	0.21835	0.016937	0.09964	-0.081635	-0.007477	-0.009613	-0.15747	0.050201	0.005798	0.021057	0.075836	-0.24582	-0.45853	-0.043945	-0.050964	-0.57983	0.72739	-0.054016	-0.007935	0.011597	0.10361	-0.037384	-0.82901	-0.12604	-0.003204	-0.004578
15.558	-0.012665	0.15198	0.051117	-0.004272	0.029297	0.016632	0.12528	0.01297	0.076447	-0.18143	-0.001373	-0.0354	-0.17868	-0.057678	0.023499	0.008545	0.093994	-0.25406	-1.0481	-0.038147	-0.20966	-0.89462	0.737	0.088959	0.017548	0.013733	0.049286	-0.031281	-1.5913	-0.12543	-0.002747	0.010223
15.559	-0.00412	0.18433	-0.007935	0.004578	0.040741	-0.007172	-0.052185	0.012665	0.051727	0.058136	-0.002136	-0.043793	-0.18265	-0.14084	0.037384	-0.002899	0.0177	-0.33783	-1.1485	0.024414	0.25726	-0.70725	0.68115	0.090027	0.032959	0.002747	0.082855	-0.020599	-1.364	-0.18143	-0.003662	0.005035
15.56	0.005188	0.20493	-0.003357	0.023499	0.023804	-0.009003	-0.21133	0.009308	0.039215	0.78537	-0.002594	-0.036774	-0.19623	-0.14664	0.030823	0.033264	-0.025787	-0.5986	-2.2252	0.1062	0.19318	-0.092468	0.62225	0.010681	0.013428	-0.016937	0.1651	-0.012054	-0.031281	-0.18463	-0.001373	0.009613
15.561	-0.010223	0.27908	0.044861	0.013428	0.026703	-0.019531	-0.31632	0.003052	0.019989	0.57831	-0.006104	-0.035248	-0.13779	-0.12741	0.00946	0.021515	-0.043335	-0.88882	-1.8121	0.036163	0.054626	0.15518	0.48874	-0.077667	-0.019836	-0.00473	0.076752	-0.022125	1.9353	-0.18997	-0.002899	0.002747
15.562	-0.006256	0.29373	-0.041962	-0.017548	0.031433	-0.00824	-0.34424	0.005951	0.008698	-0.17487	-0.022278	-0.010681	-0.070801	-0.064545	-0.006104	-0.001678	-0.040741	-0.75119	-1.1777	-0.041809	0.28442	0.089722	0.46402	-0.049133	-0.01236	-0.01358	-0.04776	-0.02594	1.176	-0.15198	-0.000916	0.007172
15.563	0.015564	0.34149	-0.070343	-0.026855	0.024109	-0.007477	-0.28076	-0.000305	0.01709	-0.30884	-0.011139	0.005646	-0.033264	0.06134	0.0177	-0.015259	0.02121	-0.59052	-1.3126	-0.12878	-0.1358	0.072937	0.53955	0.047913	-0.00824	-0.032349	-0.021515	-0.027924	-0.32944	-0.079498	-0.001831	0.012817
15.564	0.002594	0.41321	-0.028381	-0.019531	0.033112	-0.001984	-0.11307	-0.000458	0.020599	-0.24597	0.001068	0.02533	-0.066376	0.022125	0.019073	-0.002289	-0.018005	-0.40451	-1.7619	-0.006714	-0.17441	0.17456	0.46707	0.121	-0.039215	-0.040588	0.06485	-0.024872	1.2613	-0.10025	-0.000458	0.006714
15.565	0.016174	0.50903	-0.00351	-0.013275	0.0383	0.010223	-0.024109	0.001678	0.017548	-0.33447	-0.00824	0.047607	-0.093079	0.01236	0.004578	-0.033264	-0.045776	-0.47409	-2.2707	0.14465	0.015106	0.37476	0.58151	0.1976	-0.15442	-0.045013	0.10544	-0.026245	0.78644	-0.02594	-0.000763	0.006256
